<?xml version="1.0" standalone="no"?>
<!DOCTYPE svg PUBLIC "-//W3C//DTD SVG 20010904//EN"
 "http://www.w3.org/TR/2001/REC-SVG-20010904/DTD/svg10.dtd">
<svg version="1.0" xmlns="http://www.w3.org/2000/svg"
 width="334.000000pt" height="334.000000pt" viewBox="0 0 334.000000 334.000000"
 preserveAspectRatio="xMidYMid meet">
<metadata>
Created by potrace 1.15, written by Peter Selinger 2001-2017
</metadata>
<g transform="translate(0.000000,334.000000) scale(0.100000,-0.100000)"
fill="#000000" stroke="none">
<path d="M1091 3109 c-450 -97 -783 -417 -903 -869 -29 -108 -36 -363 -14
-482 45 -241 154 -447 325 -619 295 -294 715 -408 1124 -305 103 26 255 93
331 145 24 17 48 31 53 31 4 0 208 -200 453 -445 245 -245 450 -445 455 -445
13 0 185 172 185 185 0 6 -200 210 -444 454 l-443 443 51 69 c102 135 182 320
211 487 21 120 19 309 -4 430 -86 445 -414 792 -860 909 -138 36 -384 42 -520
12z m334 -119 c242 -26 443 -119 617 -288 271 -262 377 -650 277 -1013 -25
-92 -104 -256 -158 -329 -59 -78 -166 -185 -237 -236 -87 -63 -234 -130 -349
-160 -87 -23 -120 -27 -250 -27 -130 0 -163 4 -250 27 -296 78 -537 271 -671
538 -203 403 -121 886 204 1200 193 187 410 279 702 296 14 1 66 -3 115 -8z"/>
</g>
</svg>
